<svg width="180" height="38" viewBox="0 0 180 38" fill="none" xmlns="http://www.w3.org/2000/svg">
<g clip-path="url(#clip0_193_1184)">
<path d="M53.8591 0.0351562L62.5724 0.071251C63.5384 0.0467955 64.5007 0.200235 65.4109 0.523861C66.0938 0.773829 66.7049 1.18662 67.1909 1.72619C67.645 2.2616 67.9614 2.89918 68.1129 3.58383C68.2997 4.37818 68.3894 5.19211 68.3803 6.00793L68.3553 11.5614C68.3553 13.0905 68.0767 14.2447 67.5196 15.024C67.0562 15.7257 66.3869 16.2677 65.6031 16.5762C65.9918 16.719 66.3651 16.9004 66.7173 17.1177C67.1156 17.3699 67.4632 17.6938 67.7424 18.0729C68.0785 18.5403 68.3319 19.0615 68.4917 19.614C68.7014 20.3608 68.7954 21.1352 68.7703 21.9103L68.7369 29.7657C68.7369 31.6854 68.2726 33.2691 67.3441 34.5168C66.4156 35.7644 64.9039 36.3855 62.8092 36.3799L53.7031 36.3411L53.8591 0.0351562ZM59.3049 19.8222L59.2548 31.2402H60.9261C61.8101 31.2402 62.3904 31.0393 62.6671 30.6376C62.9438 30.2359 63.0859 29.626 63.0933 28.8078L63.1212 22.1713C63.1603 21.5661 63.0177 20.9629 62.7117 20.4387C62.4331 20.0305 61.8593 19.825 60.9763 19.8194L59.3049 19.8222ZM59.369 4.98609L59.3272 14.4048H60.9985C61.7414 14.4048 62.2483 14.1706 62.5195 13.7023C62.8039 13.1362 62.9409 12.5079 62.9178 11.8752L62.9373 7.288C62.9796 6.69265 62.8459 6.09801 62.5529 5.57754C62.2929 5.18509 61.7887 4.98794 61.0403 4.98609H59.369Z" fill="#F2A159"/>
<path d="M70.6515 0.109375L76.2812 0.134365L76.153 28.8764C76.1207 29.5281 76.262 30.1767 76.5625 30.7563C76.6974 30.9881 76.8946 31.1778 77.1318 31.3038C77.369 31.4299 77.6369 31.4875 77.9052 31.4699C78.557 31.4699 79.0194 31.2478 79.298 30.7924C79.608 30.2078 79.7543 29.5507 79.7214 28.8903L79.8467 0.148249L85.4791 0.173239L85.3733 28.5738C85.3622 31.145 84.805 33.1758 83.702 34.6659C82.5989 36.1561 80.8245 36.8966 78.3787 36.8873H77.401C74.9515 36.8762 73.1873 36.1358 72.1084 34.6659C71.0294 33.1961 70.502 31.1413 70.5262 28.5016L70.6515 0.109375Z" fill="#F2A159"/>
<path d="M100.658 0.238823L100.639 5.11756L92.5437 31.2384L100.914 31.2745L100.892 36.5503L86.7441 36.4892L86.7664 31.6105L94.761 5.48965L87.3681 5.45355L87.3932 0.177734L100.658 0.238823Z" fill="#F2A159"/>
<path d="M115.59 0.303276L115.567 5.17646L107.475 31.3056L115.846 31.3417L115.824 36.6175L101.676 36.5537L101.698 31.6721L109.693 5.55132L102.3 5.518L102.325 0.242188L115.59 0.303276Z" fill="#F2A159"/>
<path d="M132.356 28.5802C132.361 29.7439 132.241 30.9048 131.996 32.0428C131.795 33.0171 131.391 33.9384 130.81 34.7473C130.249 35.5117 129.496 36.1144 128.626 36.4939C127.566 36.9253 126.427 37.1288 125.283 37.0909H124.353C123.207 37.1214 122.067 36.9085 121.01 36.4661C120.137 36.0767 119.381 35.4682 118.815 34.7001C118.227 33.8893 117.814 32.9654 117.603 31.9872C117.353 30.8494 117.234 29.6867 117.249 28.5218L117.339 8.31826C117.32 7.16097 117.437 6.0055 117.687 4.8751C117.905 3.91939 118.327 3.02163 118.924 2.24275C119.507 1.51001 120.267 0.936761 121.132 0.576703C122.184 0.161266 123.311 -0.0334586 124.442 0.00469485H125.369C126.524 -0.0232447 127.672 0.181708 128.745 0.607248C129.614 0.96832 130.371 1.55168 130.941 2.29828C131.514 3.08499 131.911 3.98563 132.105 4.93896C132.342 6.0535 132.457 7.19016 132.45 8.32937L132.356 28.5802ZM126.815 8.07113C126.815 6.21071 126.183 5.27773 124.918 5.27218C124.199 5.27218 123.692 5.49802 123.397 5.9497C123.102 6.40787 122.951 7.1076 122.949 8.05447L122.857 29.0189C122.829 29.7013 122.967 30.3804 123.258 30.9987C123.535 31.5392 124.064 31.8114 124.846 31.8151C125.588 31.8151 126.087 31.5476 126.342 31.0126C126.607 30.387 126.735 29.7119 126.718 29.0328L126.815 8.07113Z" fill="#F2A159"/>
<path d="M149.442 28.6571C149.445 29.818 149.325 30.9759 149.083 32.1114C148.878 33.0847 148.474 34.0055 147.896 34.8159C147.334 35.5797 146.58 36.1822 145.709 36.5625C144.645 36.9963 143.501 37.1989 142.353 37.1567H141.422C140.276 37.1866 139.137 36.9737 138.08 36.532C137.208 36.14 136.453 35.532 135.884 34.7659C135.296 33.9551 134.884 33.0313 134.673 32.0531C134.423 30.9142 134.306 29.7505 134.322 28.5849L134.408 8.3841C134.401 7.22627 134.53 6.07161 134.793 4.94372C135.009 3.98881 135.43 3.09182 136.027 2.31415C136.611 1.5819 137.372 1.00881 138.238 0.6481C139.29 0.234753 140.415 0.0410081 141.545 0.0788667H142.478C143.631 0.0503434 144.779 0.254349 145.851 0.678644C146.721 1.04064 147.479 1.62492 148.049 2.37246C148.624 3.15844 149.02 4.05945 149.211 5.01314C149.443 6.12896 149.554 7.26672 149.539 8.40632L149.442 28.6571ZM143.899 8.14809C143.899 6.28767 143.266 5.35375 142.002 5.34634C141.283 5.34634 140.779 5.57126 140.481 6.02665C140.183 6.48204 140.035 7.18456 140.032 8.13143L139.94 29.0931C139.915 29.7777 140.055 30.4584 140.347 31.0784C140.624 31.6208 141.153 31.8929 141.935 31.8948C142.687 31.8948 143.185 31.6273 143.431 31.0923C143.697 30.4658 143.825 29.7898 143.807 29.1097L143.899 8.14809Z" fill="#F2A159"/>
<path d="M157.199 0.482847L157.065 31.177L163.82 31.2075L163.795 36.8304L151.508 36.7777L151.669 0.455078L157.199 0.482847Z" fill="#F2A159"/>
<path d="M173.955 30.03L169.891 30.0134L169.181 36.8303H164.236L168.852 0.541016L175.409 0.57156L180 36.8886L174.666 36.8664L173.955 30.03ZM170.507 24.6126H173.398L171.989 11.187L170.507 24.6126Z" fill="#F2A159"/>
</g>
<g clip-path="url(#clip1_193_1184)">
<path d="M24.4099 35.1608C25.6955 33.9685 24.8219 30.9077 27.0755 30.6634C29.2075 30.4338 29.4581 33.2379 29.1231 34.7288C29.0685 34.9756 28.9171 35.5261 28.5423 35.2768C28.3413 35.1435 28.5125 34.3536 28.5175 34.1709C28.5349 33.4921 28.5721 31.9494 27.6935 31.7593C26.723 31.5322 26.5046 32.7664 26.4053 33.4107C26.273 34.4292 25.8675 35.3935 25.2314 36.2024C24.954 36.5497 24.5938 36.8226 24.1835 36.9961C23.7731 37.1697 23.3256 37.2386 22.8817 37.1964C22.4378 37.1542 22.0116 37.0023 21.6417 36.7546C21.2718 36.5069 20.9701 36.1711 20.7639 35.7779C19.7711 34.0204 20.9327 31.6902 22.1439 30.3474C22.7395 29.6859 23.5213 29.2292 24.1294 28.5825C24.8151 27.8773 25.4035 27.0846 25.8792 26.2252C26.8719 24.4035 27.3832 21.866 26.2415 19.99C24.0698 16.4158 18.2249 18.3412 15.8496 20.6392C15.3706 21.1033 14.7303 21.7303 14.7899 22.4584C14.8916 23.7099 16.1872 23.2162 16.8846 22.8386C18.6791 21.8734 20.4412 20.1752 22.608 20.2073C24.4992 20.2344 25.8792 21.8068 25.3828 23.6828C24.946 25.3316 23.3401 26.5436 21.9949 27.4693C20.2811 28.6207 18.488 29.6509 16.629 30.5523C15.5047 31.1101 13.0575 31.7198 12.6405 33.0972C12.3427 34.0845 13.0723 34.7954 14.0329 34.5363C15.0703 34.2549 15.805 33.3342 16.8648 33.1367C17.2147 33.0725 19.0216 33.2873 18.143 33.8204C17.9444 33.9414 17.5473 33.7785 17.3289 33.7859C17.0566 33.8009 16.7896 33.8671 16.5421 33.9809C16.0135 34.1981 15.5642 34.5634 15.0728 34.8399C14.2786 35.2867 13.1592 35.7334 12.2732 35.2916C11.4417 34.8769 11.0942 33.7094 11.3846 32.8627C12.0051 31.0534 14.6856 30.1228 16.217 29.2934C18.1355 28.2542 20.0789 27.1607 21.779 25.7858C22.4442 25.2477 23.1912 24.6158 23.5536 23.8111C23.916 23.0064 23.6603 22.0215 22.6278 22.0832C20.7341 22.2042 19.235 24.2579 17.7111 25.1786C15.795 26.3363 13.529 26.5757 12.0026 24.6578C10.65 22.9496 11.3077 20.8984 12.4171 19.2742C12.4816 19.1779 12.9383 18.6769 12.7944 18.5337C12.6504 18.3905 11.9108 18.9854 11.8438 19.0274C11.0196 19.5784 10.3759 20.3577 9.99226 21.2687C8.71654 24.7096 14.2612 29.4859 9.99226 32.1419C8.44104 33.1095 6.10802 33.1466 5.0929 31.4286C3.95617 29.5057 5.22445 27.4939 5.58929 25.5538C5.74814 24.7121 5.26664 23.5248 4.21181 23.9518C3.96362 24.0506 3.58884 24.5467 3.31831 24.3862C2.89886 24.1394 3.53672 23.6457 3.73776 23.5026C4.44512 23.0089 5.32124 22.9842 5.87223 23.7321C6.51009 24.5961 6.3438 25.9265 6.22467 26.9188C6.02115 28.6245 5.18722 31.4088 7.86027 31.4532C10.1213 31.4903 10.2405 29.2663 9.55792 27.6914C8.77114 25.8772 7.40607 24.3097 7.18518 22.2857C6.96429 20.2616 8.06875 18.6423 9.50828 17.302C9.66712 17.1539 10.3819 16.6479 10.1089 16.4578C9.83589 16.2677 9.17073 16.6528 8.9697 16.7565C8.0067 17.2501 7.23234 18.156 6.33139 18.7707C4.80748 19.8099 2.30568 20.9601 0.749503 19.3186C-0.623012 17.8697 -0.0223828 15.4655 1.83411 14.8632C2.70279 14.5818 3.63352 14.488 4.53198 14.3325C5.12517 14.2313 6.86501 14.0141 6.94443 13.1724C7.02385 12.3306 5.89209 12.5602 5.52724 12.2467C5.21452 11.9777 5.35599 11.7284 5.65878 11.6296C6.12043 11.4766 6.70617 11.7851 6.98166 11.9851C9.05905 13.4957 6.27182 14.7892 5.03333 15.1421C4.18947 15.389 -0.0372746 15.895 1.55861 17.7216C2.94354 19.3088 5.37833 17.3094 6.36862 16.2233C6.89479 15.6482 7.3614 15.0335 8.02904 14.5942C9.08387 13.8882 10.7592 13.8364 10.7368 13.629C10.7021 13.2736 9.80115 13.3303 9.24767 12.9082C8.7671 12.5624 8.34772 12.1395 8.0067 11.6568C7.17525 10.504 7.13058 9.09212 7.68405 7.80609C8.57755 5.73017 10.4415 4.1899 12.3253 3.03716C12.7894 2.75329 14.8991 1.84986 13.8492 1.0896C12.983 0.465097 11.1439 1.45739 10.2454 1.69929C9.69194 1.84986 9.07394 2.0424 8.50805 1.78815C8.29461 1.68695 7.21 0.739087 7.69894 0.474969C7.94714 0.336739 8.58499 1.00074 8.81085 1.07479C9.4363 1.2846 10.1908 0.882256 10.7766 0.689722C12.0001 0.287374 13.6804 -0.443269 14.8693 0.423135C15.9191 1.1908 15.393 2.30158 14.6062 3.01494C13.7052 3.83198 12.5635 4.35775 11.6427 5.16244C10.7586 5.88256 9.99756 6.74032 9.38914 7.70241C8.6942 8.88724 9.09131 10.2078 10.2826 10.9113C10.7648 11.1689 11.2878 11.3426 11.8289 11.4247C12.6157 11.5753 12.8663 11.6938 12.8688 10.8866C12.8688 9.49199 13.0029 8.05539 13.5836 6.76443C14.1644 5.47346 15.3756 4.49351 16.5967 3.76533C21.4017 0.897064 29.5251 2.3312 30.096 8.81565C30.1307 9.20072 29.9645 10.4571 30.307 10.588C30.7463 10.7533 32.094 10.0943 32.4836 9.90668C33.5087 9.44015 34.8489 8.44787 34.2036 7.16677C33.5782 5.93258 31.6447 6.01403 30.5179 5.57466C29.3911 5.13529 28.6168 3.87394 29.3613 2.73355C29.5124 2.52933 29.7067 2.36067 29.9306 2.23952C30.1545 2.11837 30.4025 2.0477 30.6569 2.03253C31.0739 1.97575 32.4762 1.89923 32.7417 2.31145C33.1686 2.97792 31.9525 2.71627 31.6745 2.69405C31.1781 2.65703 30.2524 2.55829 29.952 3.05444C29.0734 4.50585 32.0121 4.76503 32.6648 4.87117C33.8561 5.06371 35.5215 5.43149 36.1867 6.56202C36.9313 7.82583 36.42 9.45003 35.524 10.4744C34.5312 11.5975 33.3176 12.1035 32.0493 12.7922C31.399 13.1452 31.8656 13.1032 32.3943 13.2859C33.0689 13.5571 33.6861 13.9523 34.2135 14.451C35.2758 15.3816 35.9956 16.6898 37.1298 17.5315C37.9737 18.156 39.927 18.4498 39.5845 16.7737C39.299 15.3816 37.5642 15.3347 36.8543 14.3053C35.9435 12.9971 37.2663 12.1332 38.3435 11.642C38.6984 11.4766 39.7929 10.6867 40.1628 10.9014C40.6095 11.1656 39.448 11.5951 39.2444 11.6913C38.6959 11.9505 38.0829 12.2122 37.6485 12.6441C37.0032 13.2884 37.5046 13.8462 38.1127 14.2683C39.0633 14.9323 40.7113 15.3618 41.1878 16.5195C41.3081 16.8304 41.3543 17.1647 41.3229 17.4963C41.2915 17.8279 41.1834 18.1478 41.0069 18.4309C40.8305 18.7139 40.5905 18.9526 40.3058 19.128C40.0211 19.3034 39.6995 19.4109 39.3661 19.4421C37.9811 19.5581 36.5937 18.8916 35.4917 18.1165C35.1294 17.8697 32.8584 15.8012 32.357 16.2406C32.357 16.5442 33.119 17.0798 33.3126 17.3217C33.6969 17.801 33.9981 18.3408 34.2036 18.9188C34.6305 20.153 34.4295 21.3378 33.9802 22.5374C33.3821 24.132 30.6073 28.0345 32.9676 29.3206C33.8859 29.8142 34.7521 29.2095 34.9184 28.2641C35.1368 27.0299 34.2532 25.7365 34.7174 24.4875C34.8365 24.1641 35.2808 23.5865 35.663 23.5569C36.3406 23.505 35.7424 24.0234 35.529 24.3295C34.6578 25.5637 35.7772 26.5165 36.1619 27.7235C36.4895 28.7553 36.4398 29.9451 35.462 30.6041C34.5387 31.2212 32.98 31.3002 31.9624 30.9497C29.2323 30.0117 30.5899 26.4251 31.2799 24.5837C31.677 23.5273 32.1213 22.2684 31.9128 21.128C31.805 20.5768 31.5406 20.0679 31.1508 19.6618C30.8803 19.3581 30.0588 18.3955 29.5574 18.6028C29.3266 18.6991 30.1233 21.2094 30.163 21.6735C30.258 22.9875 29.9665 24.3005 29.3241 25.4526C28.0831 27.8 26.1522 29.4613 24.112 31.1003C23.149 31.8753 22.1935 32.9713 22.2431 34.2944C22.263 34.8226 22.4541 35.2817 22.9654 35.4915C23.3526 35.652 24.2014 35.6248 24.4099 35.1608Z" fill="#FF5500"/>
</g>
<defs>
<clipPath id="clip0_193_1184">
<rect width="126.298" height="37.1667" fill="white" transform="translate(53.7012)"/>
</clipPath>
<clipPath id="clip1_193_1184">
<rect width="41.3318" height="37.1986" fill="white" transform="translate(0 0.0175781)"/>
</clipPath>
</defs>
</svg>
